<svg
  width="1508"
  height="1508"
  viewBox="0 0 1508 1508"
  fill="none"
  xmlns="http://www.w3.org/2000/svg"
>
  <style>
    @media (prefers-color-scheme: dark) {
      rect {
        fill: #0f172a;
      }

      path {
        fill: #ecf8ff;
      }
    }
  </style>

  <g filter="url(#filter0_d_4_2)">
    <rect x="4" width="1500" height="1500" rx="350" fill="#ECF8FF" />
    <g filter="url(#filter1_d_4_2)">
      <path
        d="M484.101 962.6C478.967 962.6 473.367 961.2 467.301 958.4C461.701 955.133 455.634 951.633 449.101 947.9L221.601 814.2C216.001 810.467 211.801 805.8 209.001 800.2C206.201 794.133 204.801 788.067 204.801 782C204.801 775.467 206.201 769.4 209.001 763.8C211.801 757.733 216.001 753.067 221.601 749.8L449.101 618.9C455.167 615.167 460.767 612.367 465.901 610.5C471.501 608.167 476.634 607 481.301 607C490.634 607 499.267 611.667 507.201 621C515.601 629.867 519.801 639.2 519.801 649C519.801 653.667 518.401 658.333 515.601 663C513.267 667.2 509.534 670.933 504.401 674.2L261.501 814.9L256.601 744.9L503.701 892.6C509.301 895.867 513.267 900.067 515.601 905.2C517.934 909.867 519.101 914.767 519.101 919.9C519.101 931.1 515.134 941.133 507.201 950C499.734 958.4 492.034 962.6 484.101 962.6ZM613.874 1106.8C605.941 1106.8 597.774 1103.53 589.374 1097C580.974 1090.47 576.774 1082.07 576.774 1071.8C576.774 1066.2 578.174 1060.6 580.974 1055L865.174 473.3C868.441 466.767 872.874 461.633 878.474 457.9C884.074 454.167 889.908 452.3 895.974 452.3C903.908 452.3 911.841 455.567 919.774 462.1C928.174 468.167 932.374 476.567 932.374 487.3C932.374 492.9 930.974 498.5 928.174 504.1L644.674 1085.8C641.408 1092.33 636.974 1097.47 631.374 1101.2C626.241 1104.93 620.408 1106.8 613.874 1106.8ZM1026.43 954.2C1017.09 954.2 1008.23 949.767 999.826 940.9C991.892 931.567 987.926 922 987.926 912.2C987.926 907.067 989.092 902.4 991.426 898.2C994.226 894 998.192 890.267 1003.33 887L1246.23 746.3L1251.13 816.3L1004.03 668.6C998.426 665.333 994.459 661.367 992.126 656.7C989.792 651.567 988.626 646.433 988.626 641.3C988.626 630.1 992.592 620.3 1000.53 611.9C1008.46 603.033 1016.16 598.6 1023.63 598.6C1028.76 598.6 1034.13 600.233 1039.73 603.5C1045.79 606.3 1052.09 609.567 1058.63 613.3L1286.13 747C1291.73 750.267 1295.93 754.933 1298.73 761C1301.53 766.6 1302.93 772.667 1302.93 779.2C1302.93 785.733 1301.53 792.033 1298.73 798.1C1295.93 803.7 1291.73 808.133 1286.13 811.4L1058.63 942.3C1052.56 945.567 1046.96 948.367 1041.83 950.7C1036.69 953.033 1031.56 954.2 1026.43 954.2Z"
        fill="#0f172a"
      />
    </g>
  </g>
  <defs>
    <filter
      id="filter0_d_4_2"
      x="0"
      y="0"
      width="1508"
      height="1508"
      filterUnits="userSpaceOnUse"
      color-interpolation-filters="sRGB"
    >
      <feFlood flood-opacity="0" result="BackgroundImageFix" />
      <feColorMatrix
        in="SourceAlpha"
        type="matrix"
        values="0 0 0 0 0 0 0 0 0 0 0 0 0 0 0 0 0 0 127 0"
        result="hardAlpha"
      />
      <feOffset dy="4" />
      <feGaussianBlur stdDeviation="2" />
      <feComposite in2="hardAlpha" operator="out" />
      <feColorMatrix
        type="matrix"
        values="0 0 0 0 0 0 0 0 0 0 0 0 0 0 0 0 0 0 0.25 0"
      />
      <feBlend
        mode="normal"
        in2="BackgroundImageFix"
        result="effect1_dropShadow_4_2"
      />
      <feBlend
        mode="normal"
        in="SourceGraphic"
        in2="effect1_dropShadow_4_2"
        result="shape"
      />
    </filter>
    <filter
      id="filter1_d_4_2"
      x="204.801"
      y="452.3"
      width="1116.12"
      height="672.5"
      filterUnits="userSpaceOnUse"
      color-interpolation-filters="sRGB"
    >
      <feFlood flood-opacity="0" result="BackgroundImageFix" />
      <feColorMatrix
        in="SourceAlpha"
        type="matrix"
        values="0 0 0 0 0 0 0 0 0 0 0 0 0 0 0 0 0 0 127 0"
        result="hardAlpha"
      />
      <feOffset dx="10" dy="10" />
      <feGaussianBlur stdDeviation="4" />
      <feComposite in2="hardAlpha" operator="out" />
      <feColorMatrix
        type="matrix"
        values="0 0 0 0 0 0 0 0 0 0 0 0 0 0 0 0 0 0 0.25 0"
      />
      <feBlend
        mode="normal"
        in2="BackgroundImageFix"
        result="effect1_dropShadow_4_2"
      />
      <feBlend
        mode="normal"
        in="SourceGraphic"
        in2="effect1_dropShadow_4_2"
        result="shape"
      />
    </filter>
  </defs>
</svg>
